<svg xmlns="http://www.w3.org/2000/svg" width="16" height="16" fill="none" viewBox="0 0 16 16">
    <g clip-path="url(#clip0)">
        <path fill="#C5C7CD" d="M8 16c1.104 0 2-.895 2-2H6c0 1.105.896 2 2 2zm6.73-4.678c-.603-.65-1.732-1.625-1.732-4.822 0-2.428-1.703-4.372-3.999-4.849V1C9 .448 8.552 0 8 0S7 .448 7 1v.651c-2.295.477-3.998 2.42-3.998 4.849 0 3.197-1.13 4.173-1.733 4.822-.187.201-.27.442-.269.678.003.512.406 1 1.003 1h11.994c.597 0 1-.488 1.003-1 .002-.236-.082-.477-.27-.678z"/>
        <circle cx="13" cy="2" r="3.75" fill="#3751FF" stroke="#F7F8FC" stroke-width="1.5"/>
    </g>
    <defs>
        <clipPath id="clip0">
            <path fill="#fff" d="M0 0H16V16H0z"/>
        </clipPath>
    </defs>
</svg>
