<svg xmlns="http://www.w3.org/2000/svg" width="16" height="16" fill="none" viewBox="0 0 16 16">
    <g clip-path="url(#clip0)">
        <path fill="#dde2ff" d="M15.523 8.941H8.544l4.648 4.648c.178.178.47.192.653.02 1.138-1.072 1.92-2.518 2.15-4.143.04-.278-.19-.525-.472-.525zm-.465-1.906c-.243-3.513-3.05-6.32-6.564-6.563C8.226.453 8 .679 8 .948V7.53h6.582c.268 0 .494-.225.476-.494zm-8.47 1.906V1.962c0-.28-.247-.512-.524-.472-3.505.495-6.185 3.557-6.06 7.227.128 3.769 3.373 6.86 7.144 6.812 1.482-.019 2.852-.496 3.978-1.295.232-.165.248-.507.046-.708L6.588 8.94z" opacity="1"/>
    </g>
    <defs>
        <clipPath id="clip0">
            <path fill="#fff" d="M0 0H16V16H0z"/>
        </clipPath>
    </defs>
</svg>
