<svg width="16" height="16" xmlns="http://www.w3.org/2000/svg">

 <g>
  <title>background</title>
  <rect fill="none" id="canvas_background" height="602" width="802" y="-1" x="-1"/>
 </g>
 <g>
  <title>Layer 1</title>
  <path id="svg_1" d="m1.129,4.268l2.187,-2.143c0.17,-0.167 0.448,-0.167 0.618,0l2.187,2.143c0.276,0.27 0.08,0.732 -0.31,0.732l-1.31,0l0,8.571c0,0.237 -0.196,0.429 -0.438,0.429l-0.875,0c-0.241,0 -0.437,-0.192 -0.437,-0.429l0,-8.571l-1.313,0c-0.39,0 -0.584,-0.462 -0.31,-0.732l0.001,0zm6.433,-0.554l7,0c0.241,0 0.437,-0.192 0.437,-0.428l0,-0.857c0,-0.237 -0.196,-0.429 -0.438,-0.429l-7,0c-0.241,0 -0.437,0.192 -0.437,0.429l0,0.857c0,0.236 0.196,0.428 0.438,0.428zm-0.438,3l0,-0.857c0,-0.237 0.196,-0.428 0.438,-0.428l5.25,0c0.241,0 0.437,0.191 0.437,0.428l0,0.857c0,0.237 -0.196,0.429 -0.438,0.429l-5.25,0c-0.241,0 -0.437,-0.192 -0.437,-0.429zm0,6.857l0,-0.857c0,-0.236 0.196,-0.428 0.438,-0.428l1.75,0c0.241,0 0.437,0.192 0.437,0.428l0,0.857c0,0.237 -0.196,0.429 -0.438,0.429l-1.75,0c-0.241,0 -0.437,-0.192 -0.437,-0.429zm0,-3.428l0,-0.857c0,-0.237 0.196,-0.429 0.438,-0.429l3.5,0c0.241,0 0.437,0.192 0.437,0.429l0,0.857c0,0.237 -0.196,0.428 -0.438,0.428l-3.5,0c-0.241,0 -0.437,-0.191 -0.437,-0.428z" fill="#3751ff"/>
 </g>
</svg>