<svg xmlns="http://www.w3.org/2000/svg" width="16" height="16" fill="none" viewBox="0 0 16 16">
    <path fill="#DDE2FF" d="M3.556 5.333h8.888v5.334H3.556V5.333zM14.666 8c0 .736.598 1.333 1.334 1.333V12c0 .736-.597 1.333-1.333 1.333H1.333C.597 13.333 0 12.736 0 12V9.333c.736 0 1.333-.597 1.333-1.333S.736 6.667 0 6.667V4c0-.736.597-1.333 1.333-1.333h13.334C15.403 2.667 16 3.264 16 4v2.667c-.736 0-1.333.597-1.333 1.333zm-1.333-2.889c0-.368-.298-.667-.666-.667H3.333c-.368 0-.666.299-.666.667v5.778c0 .368.298.667.666.667h9.334c.368 0 .666-.299.666-.667V5.11z"/>
</svg>
